<svg xmlns="http://www.w3.org/2000/svg" xmlns:xlink="http://www.w3.org/1999/xlink" viewBox="-499 6980 327.312 68.903"><defs><style>.a{fill:url(#a);}.b{fill:url(#b);}</style><linearGradient id="a" x2="0.93" y2="1.079" gradientUnits="objectBoundingBox"><stop offset="0" stop-color="#d0c3fb"/><stop offset="1" stop-color="#a3c4fc"/></linearGradient><linearGradient id="b" x1="-1.6" x2="0.782" y2="0.872" xlink:href="#a"/></defs><g transform="translate(-656 -85.762)"><path class="a" d="M34.452,68.9a34.705,34.705,0,0,1-6.943-.7,34.263,34.263,0,0,1-12.319-5.184A34.552,34.552,0,0,1,2.707,47.862,34.278,34.278,0,0,1,.7,41.395a34.787,34.787,0,0,1,0-13.886A34.263,34.263,0,0,1,5.884,15.189,34.552,34.552,0,0,1,21.042,2.707,34.278,34.278,0,0,1,27.508.7,34.787,34.787,0,0,1,41.395.7,34.263,34.263,0,0,1,53.714,5.884,34.552,34.552,0,0,1,66.2,21.042,34.276,34.276,0,0,1,68.2,27.508a34.786,34.786,0,0,1,0,13.886,34.263,34.263,0,0,1-5.184,12.319A34.552,34.552,0,0,1,47.862,66.2,34.277,34.277,0,0,1,41.395,68.2,34.705,34.705,0,0,1,34.452,68.9Zm0-45.127A10.675,10.675,0,1,0,45.127,34.452,10.687,10.687,0,0,0,34.452,23.776Z" transform="translate(157 7065.762)"/><g transform="translate(241.433 7068.318)"><path class="b" d="M42.727,86.792a8.985,8.985,0,0,1-3.565.9q-2.7,0-5.078-2.764A22.855,22.855,0,0,0,48.743,63.252a22.393,22.393,0,0,0-11.92-20.125A25.668,25.668,0,0,0,24.378,40.1a25.668,25.668,0,0,0-12.445,3.027A22.435,22.435,0,0,0,0,63.252a23.033,23.033,0,0,0,3.052,11.77,22.8,22.8,0,0,0,8.393,8.393,24.964,24.964,0,0,0,12.02,3.315A18.486,18.486,0,0,0,29.506,94a14.371,14.371,0,0,0,8.355,2.639,19.618,19.618,0,0,0,6.979-1.351,19.365,19.365,0,0,0,6.141-3.665l-4.115-7.267A23.332,23.332,0,0,1,42.727,86.792ZM30.644,74.922A11.293,11.293,0,0,1,24.5,76.686a11.48,11.48,0,0,1-6.179-1.764A12.946,12.946,0,0,1,13.8,70.094a14.328,14.328,0,0,1-.025-13.5A12.555,12.555,0,0,1,18.3,51.807a11.683,11.683,0,0,1,6.2-1.739,11.377,11.377,0,0,1,6.141,1.739,12.252,12.252,0,0,1,4.4,4.791,14.917,14.917,0,0,1,0,13.5A12.445,12.445,0,0,1,30.644,74.922Z" transform="translate(0 -35.085)"/><path class="b" d="M421.527,145.173a8.67,8.67,0,0,1-1.739,5.629,5.928,5.928,0,0,1-4.753,2.214,5.217,5.217,0,0,1-4.078-1.676,6.613,6.613,0,0,1-1.513-4.628V128H398v21.989q0,6.041,3.377,9.681a11.725,11.725,0,0,0,9.031,3.627q7.58-.131,11.12-6.179v5.654h11.445V128H421.527Z" transform="translate(-348.218 -111.989)"/><path class="b" d="M721.443,127.214a23.551,23.551,0,0,0-19.937,0,15.968,15.968,0,0,0-6.654,6.241,19.663,19.663,0,0,0,0,18.649,16.047,16.047,0,0,0,6.654,6.241,23.55,23.55,0,0,0,19.938,0,16.135,16.135,0,0,0,6.692-6.241,19.482,19.482,0,0,0,0-18.649A16.21,16.21,0,0,0,721.443,127.214Zm-4.5,21.951a7.4,7.4,0,0,1-10.869,0,9.289,9.289,0,0,1-2.064-6.3,9.186,9.186,0,0,1,2.064-6.241,6.8,6.8,0,0,1,5.4-2.377,6.869,6.869,0,0,1,5.429,2.377,9.137,9.137,0,0,1,2.089,6.241A9.3,9.3,0,0,1,716.94,149.165Z" transform="translate(-605.883 -109.365)"/><path class="b" d="M1034.779,42.186a12.7,12.7,0,0,0-4.528-3.665,13.612,13.612,0,0,0-6.016-1.288,15.711,15.711,0,0,0-8.355,2.189,14.736,14.736,0,0,0-5.591,6.179,20.5,20.5,0,0,0-1.989,9.256,20.877,20.877,0,0,0,2.026,9.418,15.129,15.129,0,0,0,5.691,6.329,15.9,15.9,0,0,0,8.493,2.251,13.3,13.3,0,0,0,5.879-1.251,11.681,11.681,0,0,0,4.4-3.7v4.5h11.445V24.7h-11.457Zm-2.064,19.262a7.282,7.282,0,0,1-10.832,0,9.27,9.27,0,0,1-2.089-6.266,9.226,9.226,0,0,1,2.089-6.266,7.321,7.321,0,0,1,10.832-.038,9.29,9.29,0,0,1,2.064,6.3A9.322,9.322,0,0,1,1032.715,61.448Z" transform="translate(-882.183 -21.61)"/><path class="b" d="M1354.041,12.22a5.8,5.8,0,0,0,4.34-1.739,5.988,5.988,0,0,0,1.7-4.378,5.948,5.948,0,0,0-1.7-4.4,6.388,6.388,0,0,0-8.681,0,5.948,5.948,0,0,0-1.7,4.4,5.988,5.988,0,0,0,1.7,4.378A5.815,5.815,0,0,0,1354.041,12.22Z" transform="translate(-1179.393)"/><path class="b" d="M1414.039,72.268l-7.392,22.639L1396.9,73.894h-10.319l.025.038h-5.941V64.3h-11.382v9.644h-6.3v-.05H1351.6v33.158h11.382V81.536h6.3V96.458a10.628,10.628,0,0,0,3.177,8.168,11.741,11.741,0,0,0,8.331,2.952,21.127,21.127,0,0,0,5.078-.613,17.547,17.547,0,0,0,4.44-1.7l-2.189-8.105a11.094,11.094,0,0,1-4.44,1.163c-2.014,0-3.027-1.226-3.027-3.665V81.536h9.319l11.007,24.691-.838,1.614a4.429,4.429,0,0,1-4.178,2.639,6,6,0,0,1-2.314-.45,8.966,8.966,0,0,1-2.314-1.476l-4.753,7.9a16.909,16.909,0,0,0,4.891,2.727,16.533,16.533,0,0,0,5.4.863,14.078,14.078,0,0,0,8.293-2.351,15.929,15.929,0,0,0,5.341-7.23l14.91-38.2Z" transform="translate(-1182.543 -56.257)"/></g></g></svg>