<svg xmlns="http://www.w3.org/2000/svg" viewBox="-169 -162.238 158.877 33.446"><defs><style>.a{fill:#a5a9b2;}</style></defs><path class="a" d="M16.723,33.446a16.846,16.846,0,0,1-3.37-.34,16.631,16.631,0,0,1-5.98-2.516,16.772,16.772,0,0,1-6.059-7.358A16.639,16.639,0,0,1,.34,20.093a16.886,16.886,0,0,1,0-6.74,16.631,16.631,0,0,1,2.516-5.98,16.772,16.772,0,0,1,7.358-6.059A16.638,16.638,0,0,1,13.353.34a16.886,16.886,0,0,1,6.74,0,16.631,16.631,0,0,1,5.98,2.516,16.772,16.772,0,0,1,6.059,7.358,16.637,16.637,0,0,1,.974,3.139,16.885,16.885,0,0,1,0,6.74,16.631,16.631,0,0,1-2.516,5.98,16.772,16.772,0,0,1-7.358,6.059,16.638,16.638,0,0,1-3.139.974A16.846,16.846,0,0,1,16.723,33.446Zm0-21.9A5.182,5.182,0,1,0,21.9,16.723,5.188,5.188,0,0,0,16.723,11.541Z" transform="translate(-169 -162.238)"/><path class="a" d="M20.74,62.764a4.361,4.361,0,0,1-1.73.437,3.284,3.284,0,0,1-2.465-1.342A11.094,11.094,0,0,0,23.66,51.338a10.87,10.87,0,0,0-5.786-9.769A12.459,12.459,0,0,0,11.833,40.1a12.459,12.459,0,0,0-6.041,1.469A10.89,10.89,0,0,0,0,51.338a11.18,11.18,0,0,0,1.481,5.713,11.065,11.065,0,0,0,4.074,4.074,12.118,12.118,0,0,0,5.835,1.609,8.973,8.973,0,0,0,2.932,3.527,6.976,6.976,0,0,0,4.056,1.281,9.523,9.523,0,0,0,3.388-.656,9.4,9.4,0,0,0,2.981-1.779l-2-3.527A11.325,11.325,0,0,1,20.74,62.764ZM14.875,57a5.482,5.482,0,0,1-2.981.856,5.573,5.573,0,0,1-3-.856,6.284,6.284,0,0,1-2.2-2.344,6.955,6.955,0,0,1-.012-6.551,6.094,6.094,0,0,1,2.2-2.325,5.671,5.671,0,0,1,3.011-.844,5.522,5.522,0,0,1,2.981.844,5.947,5.947,0,0,1,2.137,2.325,7.241,7.241,0,0,1,0,6.551A6.041,6.041,0,0,1,14.875,57Z" transform="translate(-128.016 -198.663)"/><path class="a" d="M409.42,136.336a4.208,4.208,0,0,1-.844,2.732,2.877,2.877,0,0,1-2.307,1.075,2.533,2.533,0,0,1-1.979-.814,3.21,3.21,0,0,1-.735-2.246V128H398v10.673a6.634,6.634,0,0,0,1.639,4.7,5.691,5.691,0,0,0,4.384,1.761,5.923,5.923,0,0,0,5.4-3v2.744h5.555V128H409.42Z" transform="translate(-501.852 -281.226)"/><path class="a" d="M706.549,126.075a11.432,11.432,0,0,0-9.678,0,7.751,7.751,0,0,0-3.23,3.03,9.545,9.545,0,0,0,0,9.052,7.789,7.789,0,0,0,3.23,3.03,11.431,11.431,0,0,0,9.678,0,7.832,7.832,0,0,0,3.248-3.03,9.456,9.456,0,0,0,0-9.052A7.868,7.868,0,0,0,706.549,126.075Zm-2.186,10.655a3.593,3.593,0,0,1-5.276,0,4.509,4.509,0,0,1-1-3.06,4.459,4.459,0,0,1,1-3.03,3.3,3.3,0,0,1,2.623-1.154,3.334,3.334,0,0,1,2.635,1.154,4.435,4.435,0,0,1,1.014,3.03A4.516,4.516,0,0,1,704.363,136.73Z" transform="translate(-778.472 -278.408)"/><path class="a" d="M1021.153,33.188a6.167,6.167,0,0,0-2.2-1.779,6.608,6.608,0,0,0-2.92-.625,7.626,7.626,0,0,0-4.056,1.062,7.152,7.152,0,0,0-2.714,3,9.948,9.948,0,0,0-.965,4.493,10.134,10.134,0,0,0,.984,4.572,7.344,7.344,0,0,0,2.762,3.072,7.715,7.715,0,0,0,4.122,1.093,6.457,6.457,0,0,0,2.854-.607,5.67,5.67,0,0,0,2.137-1.8v2.186h5.555V24.7h-5.561Zm-1,9.35a3.535,3.535,0,0,1-5.258,0,5.07,5.07,0,0,1,0-6.083,3.553,3.553,0,0,1,5.258-.018,4.509,4.509,0,0,1,1,3.06A4.525,4.525,0,0,1,1020.151,42.538Z" transform="translate(-1075.099 -184.198)"/><path class="a" d="M1350.933,5.932a2.813,2.813,0,0,0,2.107-.844,2.907,2.907,0,0,0,.826-2.125,2.887,2.887,0,0,0-.826-2.137,3.1,3.1,0,0,0-4.214,0A2.887,2.887,0,0,0,1348,2.963a2.907,2.907,0,0,0,.826,2.125A2.823,2.823,0,0,0,1350.933,5.932Z" transform="translate(-1394.175 -160.998)"/><path class="a" d="M1381.908,68.167l-3.588,10.989-4.73-10.2h-5.009l.012.018h-2.884V64.3h-5.525v4.681h-3.06v-.024H1351.6v16.1h5.525V72.666h3.06v7.243a5.159,5.159,0,0,0,1.542,3.965,5.7,5.7,0,0,0,4.044,1.433,10.256,10.256,0,0,0,2.465-.3,8.518,8.518,0,0,0,2.155-.826l-1.062-3.934a5.385,5.385,0,0,1-2.155.565c-.978,0-1.469-.595-1.469-1.779V72.666h4.523l5.343,11.985-.407.783a2.15,2.15,0,0,1-2.028,1.281,2.916,2.916,0,0,1-1.123-.219,4.353,4.353,0,0,1-1.123-.716l-2.307,3.837a8.207,8.207,0,0,0,2.374,1.324,8.025,8.025,0,0,0,2.623.419,6.833,6.833,0,0,0,4.025-1.141,7.732,7.732,0,0,0,2.592-3.509l7.237-18.542Z" transform="translate(-1397.556 -221.394)"/></svg>